<?xml version="1.0" encoding="UTF-8"?><svg id="a" xmlns="http://www.w3.org/2000/svg" width="147.2399" height="153.6" viewBox="0 0 147.2399 153.6"><defs><style>.b,.c{stroke:#fff;stroke-miterlimit:10;}.c{fill:#fff;}</style></defs><path class="c" d="M95.17,142.5H52.17v-6.8c0-3.8,3.1-6.8,6.8-6.8h29.4c3.8,0,6.8,3.1,6.8,6.8v6.8Z"/><path class="b" d="M95.67,143H51.67v-7.3c0-4,3.3-7.3,7.3-7.3h29.4c4,0,7.3,3.3,7.3,7.3v7.3Zm-43-1h42v-6.3c0-3.5-2.8-6.3-6.3-6.3h-29.4c-3.5,0-6.3,2.8-6.3,6.3v6.3Z"/><path class="c" d="M108.17,152.6H39.0699v-3.3c0-3.8,3.1-6.8,6.8-6.8h55.5c3.8,0,6.8,3.1,6.8,6.8v3.3Z"/><path class="b" d="M108.67,153.1H38.5699v-3.8c0-4,3.3-7.3,7.3-7.3h55.5c4,0,7.3,3.3,7.3,7.3v3.8Zm-69.1-1H107.6699v-2.8c0-3.5-2.8-6.3-6.3-6.3H45.87c-3.5,0-6.3,2.8-6.3,6.3v2.8Z"/><path class="b" d="M81.27,129.3h-15.2v-33.7c-2-.8-12.1-5.3-21.6-20.3-18.3-5-31.1-13.8-38.1-26.2C-3.33,32.1,1.87,14.8,2.07,14l.9-3H27.87c-.1-3.3-.2-6.6-.2-10V.5H119.67v.5c0,3.3-.1,6.7-.2,10h24.8l.9,3c.2,.7,5.4,18.1-4.3,35.1-6.9,12.1-19.3,20.8-37,25.9-9.7,16.1-20.5,20-22.7,20.7v33.6h.1Zm-14.2-1h13.2v-33.4l.4-.1c.1,0,12.1-3.1,22.5-20.5l.1-.2,.2-.1c17.5-5,29.8-13.6,36.6-25.5,9.4-16.6,4.4-33.6,4.2-34.3l-.7-2.2h-25.1v-.5c.1-3.3,.2-6.7,.2-9.9H28.6699c0,3.3,.1,6.7,.2,9.9v.5H3.77l-.7,2.4c-.2,.7-5.2,17.6,4.2,34.3,6.9,12.1,19.6,20.8,37.7,25.7l.2,.1,.1,.2c10.1,16.2,21.4,20.2,21.5,20.2l.3,.1v33.3Zm-26.3-61.8l-1.1-.4c-12.7-4.6-21.7-11.5-26.8-20.5-6-10.4-5.2-21.2-4.3-26.7l.1-.4H29.27v.5c1.4,18.1,5.1,33.7,10.9,46.4l.6,1.1ZM9.47,19.5c-.9,5.5-1.4,15.7,4.2,25.6h0c4.9,8.5,13.3,15.1,25.1,19.6-5.6-12.5-9.1-27.7-10.5-45.2H9.47Zm97.9,46.7l.5-1.1c5.4-12.5,8.8-28,10.1-46.1v-.5h20.6l.1,.4c1,5.5,1.7,16.2-4.3,26.7l-.4-.2,.4,.2c-5,8.8-13.7,15.5-25.9,20.1l-1.1,.5Zm11.6-46.7c-1.3,17.5-4.6,32.6-9.7,44.9,11.4-4.5,19.6-11,24.3-19.3,5.7-9.9,5.1-20.1,4.2-25.6h-18.8Z"/><path class="b" d="M80.47,65.4h-12v-30.2l-6.7,1.5-2.4-9.6,12.5-3.5h8.7v41.8h-.1Zm-11.1-1h10V24.6h-7.5l-11.3,3.2,1.9,7.7,7-1.6v30.5h-.1Z"/></svg>