<?xml version="1.0" encoding="UTF-8"?><svg id="a" xmlns="http://www.w3.org/2000/svg" width="379.9003" height="214.2" viewBox="0 0 379.9003 214.2"><defs><style>.b{fill:#fff;}</style></defs><polygon class="b" points="361.6 82.9 359.6 82.9 359.6 9.3 331.1 9.3 290.5 34.5 289.5 32.8 330.5 7.3 361.6 7.3 361.6 82.9"/><polygon class="b" points="361.8 189.1 330.7 189.1 330.4 189 289.6 163.7 290.7 162 331.2 187.1 359.8 187.1 359.8 113.3 361.8 113.3 361.8 189.1"/><polygon class="b" points="193.6 214.2 133 214.2 133 194.1 135 194.1 135 212.2 192 212.2 196 192.6 197.9 193 193.6 214.2"/><path class="b" d="M158.3,196.4C72.5,196.4,0,151.4,0,98.2S72.5,0,158.3,0c51.8,0,101.9,14.1,148.9,42,39.5,23.4,62.7,48.6,65.2,51.4l-1.5,1.3c-2.5-2.8-25.4-27.7-64.7-51C259.5,16,209.7,2,158.3,2c-39.9,0-79.8,10.3-109.3,28.3C18.7,48.7,2.1,72.8,2.1,98.2s16.7,49.4,46.9,67.9c29.6,18,69.4,28.3,109.3,28.3,129.2,0,209.3-88.9,212.6-92.7l1.5,1.3c-3.4,3.8-84,93.4-214.1,93.4Z"/><path class="b" d="M142.4,148.4C77.5,148.4,29.7,131.7,.2,98.8l1.5-1.3c29.1,32.5,76.4,48.9,140.7,48.9,85.2,0,169.5-27.3,205.5-38.9l1.7-.6,.6,1.9-1.7,.6c-36.1,11.7-120.6,39-206.1,39Z"/><rect class="b" x="1" y="97" width="286.5" height="2"/><path class="b" d="M1.8,98.6l-1.5-1.3c5.8-7,19.4-20.5,44.8-31.6,27-11.8,59.7-17.8,97.4-17.8,85.4,0,166.7,26.3,205.7,38.9l1.9,.6-.6,1.9-1.9-.6c-38.9-12.6-120-38.8-205.1-38.8-93.1,0-131.3,37.3-140.7,48.7Z"/><path class="b" d="M333.2,110.2c-22.7,0-46.7-4.2-46.7-12s24.1-12,46.7-12c24.5,0,46.7,8.7,46.7,12,.1,3.4-22.1,12-46.7,12Zm0-22c-26.4,0-44.7,5.3-44.7,10s18.4,10,44.7,10c23.7,0,42-7.9,44.5-10-2.5-2.2-20.7-10-44.5-10Z"/></svg>